<svg xmlns="http://www.w3.org/2000/svg" viewBox="0 0 625.54 307.45"><defs><style>.cls-1{fill:#98ddca;}.cls-2{font-size:37.77px;fill:#6d6e71;font-family:Montserrat-Bold, Montserrat Bold;font-weight:700;}.cls-2,.cls-6{letter-spacing:0.2em;}.cls-3{letter-spacing:0.2em;}.cls-4{letter-spacing:0.2em;}.cls-5{letter-spacing:0.12em;}.cls-7{letter-spacing:0.18em;}.cls-8{fill:#ffaaa7;}.cls-9{fill:#f3aeaa;}.cls-10{fill:#ed9f9f;}</style></defs><title>Recurso 9</title><g id="Capa_2" data-name="Capa 2"><g id="Layer_1" data-name="Layer 1"><path class="cls-1" d="M255.18,217.67l6.63-14.91h3.4l6.69,14.91h-3.62l-5.47-13.16h1.38l-5.47,13.16Zm3.34-3.19.88-2.62h7.71l.89,2.62Z"/><path class="cls-1" d="M280.06,217.67v-12.1h-4.77v-2.81h13v2.81h-4.77v12.1Z"/><path class="cls-1" d="M297.83,214.9H306v2.77H294.4V202.76h11.27v2.77h-7.84Zm-.25-6.15h7.18v2.7h-7.18Z"/><path class="cls-1" d="M313,217.67V202.76h2.85l8.8,10.74h-1.38V202.76h3.41v14.91h-2.86L315,206.94h1.39v10.73Z"/><path class="cls-1" d="M341.57,217.93a8.88,8.88,0,0,1-3.21-.57,7.5,7.5,0,0,1-2.56-1.6,7.6,7.6,0,0,1-1.7-2.45,8.26,8.26,0,0,1,0-6.18,7.41,7.41,0,0,1,1.71-2.45,7.61,7.61,0,0,1,2.58-1.61,9.36,9.36,0,0,1,6.72.11,6.7,6.7,0,0,1,2.64,2l-2.24,2a5.15,5.15,0,0,0-1.69-1.32,4.74,4.74,0,0,0-2.06-.45,5.24,5.24,0,0,0-1.92.35,4.49,4.49,0,0,0-2.5,2.51,5.55,5.55,0,0,0,0,3.88,4.43,4.43,0,0,0,2.5,2.5,5.24,5.24,0,0,0,1.92.35,4.61,4.61,0,0,0,2.06-.46,5.18,5.18,0,0,0,1.69-1.33l2.24,2.05a7,7,0,0,1-2.64,2A8.9,8.9,0,0,1,341.57,217.93Z"/><path class="cls-1" d="M354.31,217.67V202.76h3.47v14.91Z"/><path class="cls-1" d="M372.78,217.93a8.84,8.84,0,0,1-3.24-.58,7.82,7.82,0,0,1-2.6-1.62,7.33,7.33,0,0,1-1.71-2.44,8.06,8.06,0,0,1,0-6.15,7.43,7.43,0,0,1,1.71-2.44,7.88,7.88,0,0,1,2.59-1.62,9.47,9.47,0,0,1,6.5,0,7.75,7.75,0,0,1,2.59,1.61,7.3,7.3,0,0,1,1.72,2.45,7.78,7.78,0,0,1,.6,3.09,7.87,7.87,0,0,1-.6,3.08,7.44,7.44,0,0,1-1.72,2.46,7.73,7.73,0,0,1-2.59,1.6A9,9,0,0,1,372.78,217.93Zm0-2.92a4.87,4.87,0,0,0,1.85-.35,4.66,4.66,0,0,0,1.48-1,4.82,4.82,0,0,0,1-1.51,5.5,5.5,0,0,0,0-3.86,4.71,4.71,0,0,0-1-1.51,4.53,4.53,0,0,0-1.48-1,5.06,5.06,0,0,0-3.7,0,4.33,4.33,0,0,0-1.48,1,4.53,4.53,0,0,0-1,1.51,5.5,5.5,0,0,0,0,3.86,4.63,4.63,0,0,0,1,1.51,4.45,4.45,0,0,0,1.48,1A4.87,4.87,0,0,0,372.78,215Zm-1.94-13.46,2.88-3.07h3.56l-3.84,3.07Z"/><path class="cls-1" d="M387.8,217.67V202.76h2.86l8.8,10.74h-1.39V202.76h3.41v14.91h-2.86l-8.79-10.73h1.38v10.73Z"/><path class="cls-1" d="M419.57,217.67V202.76h6.77a9.4,9.4,0,0,1,4.28.93,7,7,0,0,1,2.9,2.6,7.88,7.88,0,0,1,0,7.86,7,7,0,0,1-2.9,2.6,9.53,9.53,0,0,1-4.28.92Zm3.47-2.81h3.13a5.65,5.65,0,0,0,2.59-.56,4.09,4.09,0,0,0,1.7-1.62,5.29,5.29,0,0,0,0-4.93,4,4,0,0,0-1.7-1.61,5.53,5.53,0,0,0-2.59-.57H423Z"/><path class="cls-1" d="M448.65,217.93a8.76,8.76,0,0,1-3.24-.58,7.82,7.82,0,0,1-2.6-1.62,7.19,7.19,0,0,1-1.71-2.44,8.06,8.06,0,0,1,0-6.15,7.29,7.29,0,0,1,1.71-2.44,7.78,7.78,0,0,1,2.59-1.62,9.47,9.47,0,0,1,6.5,0,7.85,7.85,0,0,1,2.59,1.61,7.27,7.27,0,0,1,1.71,2.45,7.61,7.61,0,0,1,.61,3.09,7.7,7.7,0,0,1-.61,3.08,7.41,7.41,0,0,1-1.71,2.46,7.83,7.83,0,0,1-2.59,1.6A9,9,0,0,1,448.65,217.93Zm0-2.92a4.79,4.79,0,0,0,1.84-.35,4.66,4.66,0,0,0,1.48-1,4.5,4.5,0,0,0,1-1.51,5.5,5.5,0,0,0,0-3.86,4.4,4.4,0,0,0-1-1.51,4.53,4.53,0,0,0-1.48-1,4.79,4.79,0,0,0-1.84-.35,4.93,4.93,0,0,0-1.86.35,4.43,4.43,0,0,0-1.48,1,4.69,4.69,0,0,0-1,1.51,5.5,5.5,0,0,0,0,3.86,4.8,4.8,0,0,0,1,1.51,4.55,4.55,0,0,0,1.48,1A4.93,4.93,0,0,0,448.65,215Z"/><path class="cls-1" d="M463.67,217.67V202.76h2.85l6.35,10.53h-1.51l6.22-10.53h2.88v14.91h-3.22l0-9.94h.64l-5,8.35h-1.54l-5.09-8.35h.7v9.94Z"/><path class="cls-1" d="M488.27,217.67V202.76h3.48v14.91Z"/><path class="cls-1" d="M506.66,217.93a8.88,8.88,0,0,1-3.21-.57,7.5,7.5,0,0,1-2.56-1.6,7.6,7.6,0,0,1-1.7-2.45,8.26,8.26,0,0,1,0-6.18,7.41,7.41,0,0,1,1.71-2.45,7.61,7.61,0,0,1,2.58-1.61,9.36,9.36,0,0,1,6.72.11,6.7,6.7,0,0,1,2.64,2l-2.24,2a5.15,5.15,0,0,0-1.69-1.32,4.74,4.74,0,0,0-2.06-.45,5.24,5.24,0,0,0-1.92.35,4.49,4.49,0,0,0-2.5,2.51,5.55,5.55,0,0,0,0,3.88,4.43,4.43,0,0,0,2.5,2.5,5.24,5.24,0,0,0,1.92.35,4.61,4.61,0,0,0,2.06-.46,5.18,5.18,0,0,0,1.69-1.33l2.24,2.05a7,7,0,0,1-2.64,2A8.9,8.9,0,0,1,506.66,217.93Z"/><path class="cls-1" d="M519.4,217.67V202.76h3.47v14.91Z"/><path class="cls-1" d="M530.65,217.67V202.76h3.47v12.1h7.44v2.81Z"/><path class="cls-1" d="M547.78,217.67V202.76h3.47v14.91Z"/><path class="cls-1" d="M557.07,217.67l6.62-14.91h3.41l6.69,14.91h-3.62l-5.48-13.16h1.39l-5.48,13.16Zm3.34-3.19.88-2.62H569l.89,2.62Z"/><path class="cls-1" d="M579.61,217.67V202.76h6.45a8.39,8.39,0,0,1,3.45.65,5,5,0,0,1,2.24,1.86,5.66,5.66,0,0,1,0,5.77,4.92,4.92,0,0,1-2.24,1.83,8.57,8.57,0,0,1-3.45.63H581.5l1.58-1.49v5.66Zm3.47-5.28-1.58-1.64h4.37a3.66,3.66,0,0,0,2.39-.68,2.67,2.67,0,0,0,0-3.83,3.72,3.72,0,0,0-2.39-.67H581.5l1.58-1.64Zm6,5.28-3.75-5.41h3.71l3.75,5.41Z"/><path class="cls-1" d="M599.53,217.67V202.76H603v14.91Z"/><path class="cls-1" d="M608.82,217.67l6.62-14.91h3.41l6.69,14.91h-3.62l-5.48-13.16h1.39l-5.48,13.16Zm3.34-3.19.87-2.62h7.72l.89,2.62Z"/><path class="cls-1" d="M260.85,243.24v-6.09l.78,2.08-6.58-10.9h3.69l5,8.35h-2.11l5-8.35h3.36l-6.54,10.9.79-2.08v6.09Z"/><path class="cls-1" d="M289.18,243.24v-12.1h-4.77v-2.81h13v2.81h-4.78v12.1Z"/><path class="cls-1" d="M307,240.47h8.12v2.77H303.52V228.33h11.27v2.77H307Zm-.26-6.16h7.18V237h-7.18Z"/><path class="cls-1" d="M322.08,243.24V228.33h3.47v12.1H333v2.81Z"/><path class="cls-1" d="M342.63,240.47h8.12v2.77H339.21V228.33h11.27v2.77h-7.85Zm-.25-6.16h7.18V237h-7.18Z"/><path class="cls-1" d="M357.76,243.24V228.33h6.46a8.3,8.3,0,0,1,3.45.65,5.09,5.09,0,0,1,2.24,1.86,5.71,5.71,0,0,1,0,5.76,5,5,0,0,1-2.24,1.84,8.82,8.82,0,0,1-3.45.62h-4.56l1.57-1.49v5.67Zm3.47-5.28-1.57-1.65H364a3.58,3.58,0,0,0,2.38-.68,2.66,2.66,0,0,0,0-3.82,3.63,3.63,0,0,0-2.38-.67h-4.37l1.57-1.64Zm6,5.28-3.75-5.41h3.71l3.75,5.41Z"/><path class="cls-1" d="M381.11,240.47h8.12v2.77H377.68V228.33H389v2.77h-7.84Zm-.25-6.16H388V237h-7.18Z"/><path class="cls-1" d="M394.28,243.24l6.62-14.91h3.41L411,243.24h-3.62l-5.47-13.17h1.38l-5.48,13.17Zm3.34-3.2.88-2.62h7.71l.89,2.62Z"/><path class="cls-1" d="M416.82,243.24V228.33h7.28a7,7,0,0,1,4.23,1.06,3.34,3.34,0,0,1,1.42,2.81,3.57,3.57,0,0,1-.58,2,3.76,3.76,0,0,1-1.58,1.33,5.45,5.45,0,0,1-2.29.47l.4-.9a6.16,6.16,0,0,1,2.48.47,3.93,3.93,0,0,1,1.7,1.37,3.75,3.75,0,0,1,.62,2.19,3.45,3.45,0,0,1-1.52,3,7.63,7.63,0,0,1-4.45,1.08Zm3.43-2.6h4.05a3.76,3.76,0,0,0,2-.45,1.51,1.51,0,0,0,.7-1.38,1.55,1.55,0,0,0-.7-1.41,3.76,3.76,0,0,0-2-.45H420v-2.51h3.69a3.47,3.47,0,0,0,1.93-.44,1.65,1.65,0,0,0,0-2.65,3.66,3.66,0,0,0-1.93-.42h-3.43Z"/><path class="cls-1" d="M437.38,243.24V228.33h3.47v14.91Z"/><path class="cls-1" d="M448.63,243.24V228.33h3.47v12.1h7.43v2.81Z"/><path class="cls-1" d="M465.75,243.24V228.33h3.48v14.91Z"/><path class="cls-1" d="M480.09,243.24v-12.1h-4.77v-2.81h13v2.81h-4.78v12.1Z"/><path class="cls-1" d="M491.73,243.24l6.62-14.91h3.41l6.69,14.91h-3.62l-5.48-13.17h1.39l-5.48,13.17Zm3.34-3.2.87-2.62h7.72l.89,2.62Z"/><path class="cls-1" d="M521.19,243.5a8.88,8.88,0,0,1-3.21-.57,7.51,7.51,0,0,1-4.26-4.06,8.26,8.26,0,0,1,0-6.18,7.48,7.48,0,0,1,4.28-4.05,9.46,9.46,0,0,1,6.73.1,6.9,6.9,0,0,1,2.64,2l-2.24,2a5,5,0,0,0-1.69-1.32,4.77,4.77,0,0,0-2.06-.45,5.24,5.24,0,0,0-1.92.35,4.55,4.55,0,0,0-1.51,1,4.71,4.71,0,0,0-1,1.51,5.55,5.55,0,0,0,0,3.88,4.49,4.49,0,0,0,2.5,2.51,5.24,5.24,0,0,0,1.92.35,4.78,4.78,0,0,0,2.06-.46,5.32,5.32,0,0,0,1.69-1.33l2.24,2a6.82,6.82,0,0,1-2.64,2A8.77,8.77,0,0,1,521.19,243.5Z"/><path class="cls-1" d="M533.93,243.24V228.33h3.47v14.91Z"/><path class="cls-1" d="M552.4,243.5a9,9,0,0,1-3.24-.58,7.82,7.82,0,0,1-2.6-1.62,7.13,7.13,0,0,1-1.71-2.45,8.06,8.06,0,0,1,0-6.15,7.15,7.15,0,0,1,1.71-2.43,7.78,7.78,0,0,1,2.59-1.62,8.78,8.78,0,0,1,3.25-.58,9,9,0,0,1,3.25.57,7.73,7.73,0,0,1,2.59,1.6,7.33,7.33,0,0,1,1.71,2.45,8.11,8.11,0,0,1,0,6.17,7.08,7.08,0,0,1-1.71,2.46,7.6,7.6,0,0,1-2.59,1.61A9,9,0,0,1,552.4,243.5Zm0-2.92a4.79,4.79,0,0,0,1.84-.35,4.62,4.62,0,0,0,2.47-2.52,5,5,0,0,0,.36-1.93,4.9,4.9,0,0,0-.36-1.92,4.54,4.54,0,0,0-1-1.52,4.4,4.4,0,0,0-1.48-1,4.79,4.79,0,0,0-1.84-.35,4.87,4.87,0,0,0-1.85.35,4.31,4.31,0,0,0-1.48,1,4.67,4.67,0,0,0-1,1.52,4.9,4.9,0,0,0-.35,1.92,5,5,0,0,0,.35,1.93,4.53,4.53,0,0,0,1,1.51,4.33,4.33,0,0,0,1.48,1A4.87,4.87,0,0,0,552.4,240.58Zm-1.94-13.47,2.88-3.07h3.56l-3.84,3.07Z"/><path class="cls-1" d="M567.42,243.24V228.33h2.86l8.79,10.73h-1.38V228.33h3.41v14.91h-2.86l-8.8-10.74h1.39v10.74Z"/><text class="cls-2" transform="translate(252 95.38)">CENT<tspan class="cls-3" x="114.33" y="0">R</tspan><tspan class="cls-4" x="142.32" y="0">O</tspan><tspan class="cls-4"><tspan x="0" y="45.33">REHABILI</tspan><tspan class="cls-5" x="203.44" y="45.33">T</tspan><tspan class="cls-6" x="226.93" y="45.33">A</tspan><tspan x="0" y="90.65">SANTI</tspan><tspan class="cls-7" x="132.16" y="90.65">A</tspan><tspan x="162.27" y="90.65">GO</tspan></tspan></text><path id="Background" class="cls-8" d="M192.75,128.45C180.12,118.19,166,113,150.81,113A72,72,0,0,0,123,118.75a38.78,38.78,0,0,1-30.48,0A72.09,72.09,0,0,0,64.7,113c-15.2,0-29.31,5.21-41.93,15.47-27.88,22.64-30.39,62.38-6.25,98.89,9.61,14.53,25.36,30.87,45.06,47.35a2.5,2.5,0,0,0,2.82.26c22.42-12.83,47.38-32.51,60.81-46a2.44,2.44,0,0,0-.34-3.71L111,215.44a11.78,11.78,0,0,0-13.82.17,268.29,268.29,0,0,1-26.09,16.8,2.48,2.48,0,0,1-3-.39C58.5,222.45,51.78,214.47,47,207.2c-10.19-15.42-13.67-35.14.27-49,13.57-13.45,32.41-9.63,46.05-1.78a29,29,0,0,0,28.94,0c13.63-7.85,32.47-11.67,46,1.78,13.94,13.82,10.28,33.42.27,49-13.3,20.67-43.95,50.79-88.82,77.92a2.45,2.45,0,0,0-.23,4.05c8.48,6.35,17.18,12.31,25.75,17.57a4.86,4.86,0,0,0,5,0c35.27-21.64,72.6-55,88.71-79.4C223.13,190.83,220.62,151.09,192.75,128.45Z"/><path id="Dot" class="cls-9" d="M137.1,81.83a29.33,29.33,0,0,1-26,29.14,24.8,24.8,0,0,1-3.35.21,29.35,29.35,0,1,1,0-58.69,26.39,26.39,0,0,1,3.34.2A29.33,29.33,0,0,1,137.1,81.83Z"/><path class="cls-8" d="M161.93,81.36H151.79a2.91,2.91,0,0,1-2.91-2.73,40.55,40.55,0,0,0-33.19-37.21,2.91,2.91,0,0,1-2.38-3.2l1.13-10.07a3,3,0,0,1,3.41-2.57,56.49,56.49,0,0,1,47,52.68A2.94,2.94,0,0,1,161.93,81.36Z"/><path class="cls-1" d="M186.13,78.7h-8.56a3.71,3.71,0,0,1-3.7-3.51A63.63,63.63,0,0,0,121,15.88a3.69,3.69,0,0,1-3.07-4.06l1-8.51A3.72,3.72,0,0,1,123.14.05a79.57,79.57,0,0,1,66.71,74.76A3.73,3.73,0,0,1,186.13,78.7Z"/><path class="cls-10" d="M111.11,111a128.6,128.6,0,0,1,0-58.28,29.33,29.33,0,0,1,0,58.28Z"/><path class="cls-10" d="M209.72,206.71A126.25,126.25,0,0,1,175,194.15c4.3-12.48,3.56-25.76-6.69-35.91C157,147,142,147.83,129.43,152.94A126.11,126.11,0,0,1,114,121.36a38.26,38.26,0,0,0,9-2.61A72.14,72.14,0,0,1,150.82,113c15.2,0,29.3,5.21,41.93,15.46C215.43,146.87,221.31,176.61,209.72,206.71Z"/></g></g></svg>